<?xml version="1.0" standalone="no"?>
<!DOCTYPE svg PUBLIC "-//W3C//DTD SVG 20010904//EN"
 "http://www.w3.org/TR/2001/REC-SVG-20010904/DTD/svg10.dtd">
<svg version="1.0" xmlns="http://www.w3.org/2000/svg"
 width="512.000000pt" height="512.000000pt" viewBox="0 0 512.000000 512.000000"
 preserveAspectRatio="xMidYMid meet">

<g transform="translate(0.000000,512.000000) scale(0.100000,-0.100000)"
fill="#000000" stroke="none">
<path d="M2475 4140 c-16 -5 -47 -13 -68 -18 -75 -20 -228 -118 -317 -203
-118 -115 -220 -299 -267 -484 -25 -100 -28 -127 -28 -285 0 -160 3 -185 29
-285 70 -271 223 -484 436 -610 129 -77 164 -86 329 -92 165 -6 227 6 346 65
345 171 554 589 514 1028 -25 270 -124 491 -293 659 -166 164 -334 236 -548
234 -56 -1 -116 -5 -133 -9z m349 -139 c102 -36 188 -91 267 -170 119 -120
195 -253 240 -426 20 -77 23 -113 23 -255 0 -147 -4 -176 -27 -262 -117 -428
-466 -680 -835 -603 -145 31 -265 103 -380 231 -318 353 -301 973 36 1312 87
88 162 134 272 172 80 27 93 29 225 25 90 -2 135 -8 179 -24z"/>
<path d="M2500 3863 c-19 -38 -44 -99 -56 -138 l-22 -70 -84 -7 c-45 -4 -89
-6 -96 -3 -14 5 25 90 84 183 19 29 34 55 34 59 0 20 -89 -84 -141 -164 -60
-92 -60 -93 -102 -94 l-42 -1 35 -10 c19 -5 36 -11 38 -13 2 -2 -8 -35 -22
-73 -29 -81 -51 -187 -61 -289 -6 -66 -9 -73 -29 -73 -11 -1 -34 -7 -51 -15
l-30 -13 53 -1 c51 -1 52 -2 52 -31 0 -67 33 -240 60 -321 17 -48 30 -89 30
-93 0 -3 -15 -6 -32 -7 -32 -1 -32 -1 7 -10 36 -8 45 -17 77 -72 36 -63 102
-149 119 -155 5 -2 -13 40 -41 94 -27 53 -50 101 -50 106 0 9 86 9 149 0 42
-7 44 -8 61 -62 33 -105 94 -230 106 -217 2 2 -2 20 -11 40 -13 32 -44 140
-59 210 l-6 27 150 0 c140 0 150 -1 150 -19 0 -20 -43 -178 -62 -224 -6 -15
-8 -30 -5 -33 9 -9 72 122 97 202 l23 72 51 6 c76 9 126 7 126 -4 0 -13 -55
-122 -88 -174 l-25 -40 24 15 c13 9 54 60 90 115 61 91 71 100 110 111 l44 11
-37 1 c-21 1 -38 5 -38 10 0 5 9 31 21 58 26 60 57 204 65 306 l7 77 51 0 c49
1 50 1 26 15 -14 8 -37 14 -52 15 -23 0 -28 4 -28 26 0 63 -34 244 -60 323
-16 47 -28 86 -27 87 1 0 18 5 37 11 l35 11 -42 1 c-38 1 -45 5 -68 41 -14 22
-25 43 -25 47 0 18 -138 178 -147 170 -3 -3 9 -26 26 -50 45 -66 101 -181 92
-190 -4 -4 -43 -4 -87 0 l-79 8 -30 85 c-36 98 -81 190 -94 190 -5 0 0 -24 11
-52 23 -59 58 -184 58 -209 0 -13 -20 -15 -147 -13 -82 1 -149 3 -150 3 -7 4
46 190 72 254 4 9 3 17 -3 17 -5 0 -24 -30 -42 -67z m-100 -280 c0 -10 -7 -65
-15 -123 -8 -58 -18 -143 -22 -190 l-8 -85 -108 -5 c-60 -3 -111 -2 -113 1 -5
9 14 187 27 244 6 28 20 78 31 113 l20 62 94 0 c83 0 94 -2 94 -17z m377 3
c11 -11 32 -206 33 -303 l0 -91 -191 0 -191 0 7 112 c6 106 22 260 29 281 4
11 302 12 313 1z m254 -13 c31 -81 79 -369 66 -391 -3 -4 -52 -5 -109 -2
l-103 5 -8 110 c-4 61 -14 149 -22 198 -8 48 -15 92 -15 97 0 6 37 10 90 10
89 0 91 0 101 -27z m-679 -462 c3 -3 11 -64 18 -136 6 -71 17 -160 24 -196
l12 -66 -95 -6 c-53 -3 -99 -3 -103 1 -25 25 -89 386 -73 411 5 9 207 2 217
-8z m741 -56 c-3 -91 -19 -187 -47 -278 l-22 -72 -90 4 c-49 2 -90 4 -92 6 -1
1 4 45 13 98 8 52 19 142 23 198 l7 104 85 6 c136 9 125 15 123 -66z m-283
-26 c0 -74 -15 -244 -26 -296 -4 -23 -7 -23 -163 -23 l-159 0 -6 43 c-8 56
-26 272 -26 320 l0 37 190 0 190 0 0 -81z"/>
</g>
</svg>
